<svg version="1.1" xmlns="http://www.w3.org/2000/svg" xmlns:xlink="http://www.w3.org/1999/xlink" viewBox="0 0 550 470"><g fill="#ffffff" fill-rule="nonzero" stroke="none" stroke-width="1" stroke-linecap="butt" stroke-linejoin="miter" stroke-miterlimit="10" stroke-dasharray="" stroke-dashoffset="0" font-family="none" font-weight="none" font-size="none" text-anchor="none" style="mix-blend-mode: normal"><g><path d="M253.20001,223.59371c7.00652,0.93055 9.52448,3.17483 9.52448,7.49916v0.43791c0,4.32433 -3.22957,7.06125 -8.37498,7.06125h-0.43791c-5.14541,0 -8.59393,-3.01061 -8.59393,-9.79817h-5.69279v0.54738c0,9.36027 5.03593,14.28672 14.50568,14.28672c9.03184,0 14.45094,-4.59803 14.45094,-12.37088v-0.60212c0,-7.00652 -4.16012,-10.56451 -13.46565,-11.82349c-7.22547,-0.98529 -9.19605,-3.33904 -9.19605,-7.33495v-0.43791c0,-3.88643 3.22957,-6.40439 7.88233,-6.40439h0.38317c5.85701,0 8.2655,3.12009 8.2655,10.34556h5.69279v-1.31372c0,-9.25079 -4.21486,-14.06777 -14.01303,-14.06777c-8.70341,0 -14.06777,4.59803 -14.06777,11.87823v0.60212c0,6.34965 3.83169,10.23608 13.13722,11.49506zM283.19665,199.94672l-11.76876,43.02438h6.18544l2.68218,-10.29082h13.79408l2.68218,10.29082h6.1307l-11.76876,-43.02438zM287.19255,206.35111l5.58332,21.29324h-11.16663zM337.0045,200.27515h-5.4191v23.15434l0.21895,9.46974l-17.89946,-32.62409h-6.07596v42.69595h5.4191v-23.15434l-0.21895,-9.46974l17.89946,32.62409h6.07596z"></path><path d="M362.78628,200.27515v28.57344c0,4.59803 -0.87581,7.17073 -4.05064,7.17073c-3.12009,0 -4.05064,-2.5727 -4.05064,-7.60864h-8.37498v1.4232c0,8.81288 3.22957,13.84881 12.64457,13.84881c9.03184,0 12.69931,-5.03593 12.69931,-13.73934v-29.66821zM392.83766,243.6827c11.11189,0 16.31204,-6.18544 16.31204,-20.96481v-2.18954c0,-14.77937 -5.20015,-20.96481 -16.31204,-20.96481c-11.05716,0 -16.2573,6.18544 -16.2573,20.96481v2.18954c0,14.77937 5.20015,20.96481 16.2573,20.96481zM392.61871,236.01932c-5.47384,0 -7.06125,-4.76224 -7.06125,-13.30143v-2.18954c0,-8.53919 1.58741,-13.30143 7.06125,-13.30143h0.49265c5.47384,0 7.00652,4.76224 7.00652,13.30143v2.18954c0,8.53919 -1.53268,13.30143 -7.00652,13.30143zM427.15864,225.12638c6.18544,0.82108 7.77285,2.51797 7.77285,5.58332v0.27369c0,2.8464 -2.02532,5.03593 -6.1307,5.03593h-0.49265c-4.10538,0 -6.29492,-2.24427 -6.29492,-7.60864h-8.86762v0.49265c0,10.29082 5.30962,14.77937 15.38149,14.77937c10.01713,0 15.43623,-4.76224 15.43623,-12.973v-0.54738c0,-7.93707 -4.7075,-11.11189 -14.01303,-12.37088c-6.24018,-0.82108 -7.49916,-2.46323 -7.49916,-5.58332v-0.27369c0,-2.73692 2.08006,-4.7075 5.63806,-4.7075h0.49265c4.48855,0 6.18544,2.5727 6.18544,8.15602h8.86762v-1.14951c0,-10.01713 -4.59803,-14.66989 -15.1078,-14.66989c-9.74343,0 -15.05306,4.98119 -15.05306,12.69931v0.60212c0,7.71811 4.37907,11.00242 13.6846,12.2614zM448.88978,200.27515v42.69595h26.11022v-7.66338h-17.2426v-10.29082h14.50568v-7.66338h-14.50568v-9.415h17.2426v-7.66338z"></path><path d="M241.80106,263.40538c-0.76877,-0.16016 -1.40942,-0.4004 -1.92193,-0.75276c-0.38439,-0.25626 -0.68869,-0.57658 -0.91292,-0.94495c-0.35235,-0.60861 -0.35235,-1.15316 -0.35235,-1.18519v-0.03203c0,-0.56056 0.27227,-1.12113 0.73674,-1.53755c0.36837,-0.33634 1.04105,-0.73674 2.13014,-0.73674c0.75276,0 1.82584,0.0961 2.65867,0.57658c0.48048,0.27227 0.65666,0.54455 0.65666,0.54455h-0.01602c0.08008,0.12813 0.22423,0.22423 0.38439,0.22423c0.24024,0 0.43244,-0.20821 0.43244,-0.43244c0,-0.08008 -0.03203,-0.14415 -0.06406,-0.20821v-0.01602v-0.01602c-0.06406,-0.0961 -0.32032,-0.44845 -0.88089,-0.80081c-0.81682,-0.48048 -1.87389,-0.72073 -3.17119,-0.72073c-0.54455,0 -1.05706,0.08008 -1.52153,0.25626c-0.44845,0.16016 -0.84885,0.38439 -1.18519,0.68869c-0.64064,0.57658 -1.00902,1.36137 -1.00902,2.16218c-0.01602,0.12813 -0.01602,0.83284 0.43244,1.61763c0.27227,0.48048 0.67268,0.91292 1.16918,1.24926c0.60861,0.41642 1.36137,0.72073 2.27429,0.91292c1.37739,0.27227 2.3864,0.72073 2.979,1.29731c0.4965,0.48048 0.72073,1.07308 0.72073,1.82584c0,0.30431 -0.06406,0.8969 -0.5926,1.3934c-0.57658,0.52853 -1.50551,0.78479 -2.77079,0.78479c-0.86487,0 -2.09811,-0.11211 -3.02705,-0.64064c-0.52853,-0.30431 -0.72073,-0.60861 -0.73674,-0.64064c-0.08008,-0.14415 -0.22423,-0.24024 -0.38439,-0.24024c-0.24024,0 -0.44845,0.19219 -0.44845,0.43244c0,0.0961 0.03203,0.17618 0.08008,0.24024c0.06406,0.11211 0.33634,0.51252 0.97698,0.8969c0.8969,0.54455 2.08209,0.81682 3.53956,0.81682c1.4895,0 2.61063,-0.33634 3.34737,-1.02503c0.76877,-0.70471 0.88089,-1.56958 0.88089,-2.01803c0,-2.08209 -1.44145,-3.3794 -4.40443,-3.972zM259.32459,269.34735h-7.73578v-5.01304h6.74278c0.24024,0 0.43244,-0.19219 0.43244,-0.43244c0,-0.22423 -0.19219,-0.41642 -0.43244,-0.41642h-6.74278v-4.98101h7.57562c0.22423,0 0.41642,-0.19219 0.41642,-0.43244c0,-0.22423 -0.19219,-0.41642 -0.41642,-0.41642h-7.99204c-0.24024,0 -0.43244,0.19219 -0.43244,0.41642v11.69176c0,0.24024 0.19219,0.43244 0.43244,0.43244h8.1522c0.24024,0 0.43244,-0.19219 0.43244,-0.43244c0,-0.22423 -0.19219,-0.41642 -0.43244,-0.41642zM270.84209,270.37238c-0.88089,0 -1.74576,-0.17618 -2.54656,-0.51252c-0.78479,-0.33634 -1.4895,-0.80081 -2.08209,-1.40942c-0.60861,-0.5926 -1.07308,-1.29731 -1.40942,-2.06608c-0.33634,-0.80081 -0.51252,-1.63364 -0.51252,-2.51453c0,-0.86487 0.17618,-1.69771 0.52853,-2.49851c0.32032,-0.76877 0.80081,-1.45747 1.40942,-2.06608c0.60861,-0.5926 1.31332,-1.05706 2.09811,-1.3934c0.81682,-0.33634 1.66568,-0.51252 2.56258,-0.51252c1.32934,0 2.61063,0.4004 3.69972,1.16918c0.19219,0.14415 0.24024,0.4004 0.0961,0.5926c-0.12813,0.19219 -0.4004,0.24024 -0.5926,0.11211c-0.92893,-0.67268 -2.05006,-1.02503 -3.20322,-1.02503c-0.78479,0 -1.52153,0.16016 -2.24226,0.44845c-0.67268,0.28829 -1.29731,0.70471 -1.82584,1.21722c-0.52853,0.52853 -0.94495,1.12113 -1.23324,1.7938c-0.30431,0.68869 -0.44845,1.42543 -0.44845,2.16218c0,0.75276 0.14415,1.4895 0.44845,2.17819c0.28829,0.67268 0.68869,1.28129 1.21722,1.80982c1.0891,1.07308 2.51453,1.66568 4.03606,1.66568c0.81682,0 1.5856,-0.16016 2.32234,-0.4965c0.64064,-0.28829 1.21722,-0.70471 1.71372,-1.21722v-3.71574c0,-0.24024 0.19219,-0.43244 0.43244,-0.43244c0.22423,0 0.41642,0.19219 0.41642,0.43244v3.8759c0,0.11211 -0.03203,0.20821 -0.11211,0.28829c-0.5926,0.65666 -1.29731,1.18519 -2.09811,1.53755c-0.84885,0.38439 -1.74576,0.57658 -2.67469,0.57658zM285.51476,270.43645c-1.18519,0 -2.19421,-0.24024 -2.99501,-0.70471c-0.68869,-0.38439 -1.21722,-0.94495 -1.60161,-1.64966c-0.65666,-1.20121 -0.65666,-2.4825 -0.65666,-2.89892v-7.14319c0,-0.24024 0.19219,-0.43244 0.43244,-0.43244c0.24024,0 0.43244,0.19219 0.43244,0.43244v7.14319c0,0.36837 0,1.4895 0.54455,2.49851c0.68869,1.24926 1.986,1.8899 3.84387,1.8899c1.85787,0 3.15517,-0.62463 3.82785,-1.8899c0.56056,-1.00902 0.56056,-2.11413 0.56056,-2.4825v-7.1592c0,-0.24024 0.19219,-0.43244 0.41642,-0.43244c0.24024,0 0.43244,0.19219 0.43244,0.43244v7.1592c0,0.41642 0,1.69771 -0.65666,2.89892c-0.36837,0.70471 -0.91292,1.24926 -1.5856,1.63364c-0.80081,0.46447 -1.80982,0.70471 -2.99501,0.70471zM305.34461,269.73174c0,-0.24024 -0.17618,-0.43244 -0.41642,-0.43244h-0.06406c-0.03203,0.01602 -0.70471,0.08008 -1.31332,-0.96097c-0.83284,-1.42543 -1.77779,-2.27429 -2.56258,-2.80282c0.76877,-0.12813 1.40942,-0.35235 1.92193,-0.65666c0.51252,-0.32032 0.91292,-0.73674 1.20121,-1.23324c0.28829,-0.54455 0.44845,-1.20121 0.44845,-1.93795c0,-1.29731 -0.36837,-2.32234 -1.10511,-3.04306c-1.0891,-1.07308 -2.54656,-1.0891 -2.64266,-1.0891h-5.04508c-0.25626,0 -0.48048,0.20821 -0.48048,0.46447v11.72379c0,0.24024 0.19219,0.43244 0.43244,0.43244c0.24024,0 0.43244,-0.19219 0.43244,-0.43244v-11.32339h4.66069c0.01602,0 1.18519,0 2.03405,0.83284c0.56056,0.56056 0.84885,1.37739 0.84885,2.43445c0,1.12113 -0.4004,1.92193 -1.23324,2.43445c-0.67268,0.41642 -1.64966,0.64064 -2.8829,0.67268c-0.22423,0 -0.41642,0.16016 -0.44845,0.38439c-0.03203,0.22423 0.0961,0.44845 0.32032,0.51252c0.25626,0.0961 0.78479,0.32032 1.40942,0.78479c0.75276,0.57658 1.40942,1.32934 1.95397,2.27429c0.46447,0.80081 1.00902,1.13714 1.37739,1.26527c0.43244,0.16016 0.75276,0.12813 0.80081,0.11211c0.20821,-0.03203 0.35235,-0.20821 0.35235,-0.41642zM310.31152,270.19621c-0.24024,0 -0.43244,-0.19219 -0.43244,-0.43244v-11.72379c0,-0.22423 0.19219,-0.41642 0.43244,-0.41642c0.24024,0 0.43244,0.19219 0.43244,0.41642v11.72379c0,0.24024 -0.19219,0.43244 -0.43244,0.43244zM325.91312,261.49946c-0.33634,-0.75276 -0.80081,-1.42543 -1.3934,-2.00201c-0.5926,-0.57658 -1.28129,-1.04105 -2.05006,-1.36137c-0.80081,-0.33634 -1.64966,-0.4965 -2.53055,-0.4965h-4.24427c-0.11211,0 -0.20821,0.04805 -0.28829,0.12813c-0.08008,0.08008 -0.12813,0.19219 -0.12813,0.30431v11.69176c0,0.24024 0.19219,0.43244 0.41642,0.43244h4.19622c0.88089,0 1.72974,-0.16016 2.53055,-0.4965c0.78479,-0.32032 1.47348,-0.76877 2.08209,-1.34535c0.5926,-0.57658 1.07308,-1.24926 1.3934,-2.00201c0.35235,-0.76877 0.52853,-1.5856 0.52853,-2.41843c0,-0.84885 -0.17618,-1.66568 -0.51252,-2.43445zM325.12833,266.016c-0.28829,0.64064 -0.70471,1.21722 -1.21722,1.71372c-0.52853,0.51252 -1.13714,0.8969 -1.80982,1.18519c-0.68869,0.27227 -1.40942,0.41642 -2.16218,0.43244h-3.81183v-10.85892h3.81183c1.50551,0 2.91493,0.57658 3.98801,1.61763c0.51252,0.4965 0.91292,1.0891 1.20121,1.72974c0.28829,0.67268 0.43244,1.37739 0.43244,2.09811c0,0.72073 -0.14415,1.40942 -0.43244,2.08209zM330.49563,270.19621c-0.0961,0 -0.17618,-0.03203 -0.25626,-0.08008c-0.16016,-0.12813 -0.22423,-0.35235 -0.12813,-0.52853l5.70174,-11.75583c0.08008,-0.14415 0.22423,-0.24024 0.38439,-0.24024c0.16016,0 0.32032,0.0961 0.38439,0.24024l5.73377,11.72379c0.11211,0.20821 0.01602,0.46447 -0.19219,0.57658c-0.20821,0.0961 -0.46447,0.01602 -0.57658,-0.19219l-1.42543,-2.93095c-0.993,-0.30431 -2.08209,-0.36837 -3.21924,-0.16016c-0.993,0.17618 -2.01803,0.54455 -3.05908,1.10511c-1.80982,0.94495 -3.04306,2.11413 -3.05908,2.13014c-0.08008,0.08008 -0.19219,0.11211 -0.28829,0.11211zM336.19737,259.00094l-4.50053,9.25731c0.48048,-0.33634 1.07308,-0.70471 1.72974,-1.05706c1.12113,-0.5926 2.24226,-0.993 3.29932,-1.18519c1.00902,-0.19219 1.986,-0.19219 2.89892,-0.01602zM356.81202,261.49946c-0.33634,-0.75276 -0.80081,-1.42543 -1.3934,-2.00201c-0.5926,-0.57658 -1.28129,-1.04105 -2.05006,-1.36137c-0.80081,-0.33634 -1.64966,-0.4965 -2.53055,-0.4965h-4.24427c-0.11211,0 -0.20821,0.04805 -0.28829,0.12813c-0.08008,0.08008 -0.12813,0.19219 -0.12813,0.30431v11.69176c0,0.24024 0.19219,0.43244 0.41642,0.43244h4.19622c0.88089,0 1.72974,-0.16016 2.53055,-0.4965c0.78479,-0.32032 1.47348,-0.76877 2.08209,-1.34535c0.5926,-0.57658 1.07308,-1.24926 1.3934,-2.00201c0.35235,-0.76877 0.52853,-1.5856 0.52853,-2.41843c0,-0.84885 -0.17618,-1.66568 -0.51252,-2.43445zM356.02723,266.016c-0.28829,0.64064 -0.70471,1.21722 -1.21722,1.71372c-0.52853,0.51252 -1.13714,0.8969 -1.80982,1.18519c-0.68869,0.27227 -1.40942,0.41642 -2.16218,0.43244h-3.81183v-10.85892h3.81183c1.50551,0 2.91493,0.57658 3.98801,1.61763c0.51252,0.4965 0.91292,1.0891 1.20121,1.72974c0.28829,0.67268 0.43244,1.37739 0.43244,2.09811c0,0.72073 -0.14415,1.40942 -0.43244,2.08209zM379.62278,269.34735h-7.73578v-5.01304h6.74278c0.24024,0 0.43244,-0.19219 0.43244,-0.43244c0,-0.22423 -0.19219,-0.41642 -0.43244,-0.41642h-6.74278v-4.98101h7.57562c0.22423,0 0.41642,-0.19219 0.41642,-0.43244c0,-0.22423 -0.19219,-0.41642 -0.41642,-0.41642h-7.99204c-0.24024,0 -0.43244,0.19219 -0.43244,0.41642v11.69176c0,0.24024 0.19219,0.43244 0.43244,0.43244h8.1522c0.24024,0 0.43244,-0.19219 0.43244,-0.43244c0,-0.22423 -0.19219,-0.41642 -0.43244,-0.41642zM403.25036,257.63957c-0.24024,0 -0.41642,0.19219 -0.41642,0.43244v5.31735h-8.21627v-5.31735c0,-0.24024 -0.19219,-0.43244 -0.41642,-0.43244c-0.24024,0 -0.43244,0.19219 -0.43244,0.43244v11.69176c0,0.24024 0.19219,0.43244 0.43244,0.43244c0.22423,0 0.41642,-0.19219 0.41642,-0.43244v-5.52556h8.21627v5.52556c0,0.24024 0.17618,0.43244 0.41642,0.43244c0.24024,0 0.43244,-0.19219 0.43244,-0.43244v-11.69176c0,-0.24024 -0.19219,-0.43244 -0.43244,-0.43244zM408.6497,270.19621c-0.24024,0 -0.43244,-0.19219 -0.43244,-0.43244v-11.72379c0,-0.22423 0.19219,-0.41642 0.43244,-0.41642c0.24024,0 0.43244,0.19219 0.43244,0.41642v11.72379c0,0.24024 -0.19219,0.43244 -0.43244,0.43244zM420.16719,270.37238c-0.88089,0 -1.74576,-0.17618 -2.54656,-0.51252c-0.78479,-0.33634 -1.4895,-0.80081 -2.08209,-1.40942c-0.60861,-0.5926 -1.07308,-1.29731 -1.40942,-2.06608c-0.33634,-0.80081 -0.51252,-1.63364 -0.51252,-2.51453c0,-0.86487 0.17618,-1.69771 0.52853,-2.49851c0.32032,-0.76877 0.80081,-1.45747 1.40942,-2.06608c0.60861,-0.5926 1.31332,-1.05706 2.09811,-1.3934c0.81682,-0.33634 1.66568,-0.51252 2.56258,-0.51252c1.32934,0 2.61063,0.4004 3.69972,1.16918c0.19219,0.14415 0.24024,0.4004 0.0961,0.5926c-0.12813,0.19219 -0.4004,0.24024 -0.5926,0.11211c-0.92893,-0.67268 -2.05006,-1.02503 -3.20322,-1.02503c-0.78479,0 -1.52153,0.16016 -2.24226,0.44845c-0.67268,0.28829 -1.29731,0.70471 -1.82584,1.21722c-0.52853,0.52853 -0.94495,1.12113 -1.23324,1.7938c-0.30431,0.68869 -0.44845,1.42543 -0.44845,2.16218c0,0.75276 0.14415,1.4895 0.44845,2.17819c0.28829,0.67268 0.68869,1.28129 1.21722,1.80982c1.0891,1.07308 2.51453,1.66568 4.03606,1.66568c0.81682,0 1.5856,-0.16016 2.32234,-0.4965c0.64064,-0.28829 1.21722,-0.70471 1.71372,-1.21722v-3.71574c0,-0.24024 0.19219,-0.43244 0.43244,-0.43244c0.22423,0 0.41642,0.19219 0.41642,0.43244v3.8759c0,0.11211 -0.03203,0.20821 -0.11211,0.28829c-0.5926,0.65666 -1.29731,1.18519 -2.09811,1.53755c-0.84885,0.38439 -1.74576,0.57658 -2.67469,0.57658zM430.01901,270.19621c-0.24024,0 -0.43244,-0.19219 -0.43244,-0.43244v-11.72379c0,-0.22423 0.19219,-0.41642 0.43244,-0.41642c0.24024,0 0.43244,0.19219 0.43244,0.41642v11.72379c0,0.24024 -0.19219,0.43244 -0.43244,0.43244zM443.57055,269.34735h-7.73578v-5.01304h6.74278c0.24024,0 0.43244,-0.19219 0.43244,-0.43244c0,-0.22423 -0.19219,-0.41642 -0.43244,-0.41642h-6.74278v-4.98101h7.57562c0.22423,0 0.41642,-0.19219 0.41642,-0.43244c0,-0.22423 -0.19219,-0.41642 -0.41642,-0.41642h-7.99204c-0.24024,0 -0.43244,0.19219 -0.43244,0.41642v11.69176c0,0.24024 0.19219,0.43244 0.43244,0.43244h8.1522c0.24024,0 0.43244,-0.19219 0.43244,-0.43244c0,-0.22423 -0.19219,-0.41642 -0.43244,-0.41642zM458.77175,270.19621c-0.12813,0 -0.25626,-0.04805 -0.33634,-0.16016l-9.0491,-10.85892v10.58665c0,0.22423 -0.19219,0.41642 -0.41642,0.41642c-0.24024,0 -0.43244,-0.19219 -0.43244,-0.41642v-11.77184c0,-0.19219 0.11211,-0.35235 0.27227,-0.4004c0.17618,-0.06406 0.36837,-0.01602 0.48048,0.12813l9.0491,10.85892v-10.58665c0,-0.24024 0.19219,-0.43244 0.43244,-0.43244c0.24024,0 0.43244,0.19219 0.43244,0.43244v11.77184c0,0.17618 -0.11211,0.35235 -0.28829,0.4004c-0.04805,0.01602 -0.0961,0.03203 -0.14415,0.03203zM472.32329,269.34735h-7.73578v-5.01304h6.74278c0.24024,0 0.43244,-0.19219 0.43244,-0.43244c0,-0.22423 -0.19219,-0.41642 -0.43244,-0.41642h-6.74278v-4.98101h7.57562c0.22423,0 0.41642,-0.19219 0.41642,-0.43244c0,-0.22423 -0.19219,-0.41642 -0.41642,-0.41642h-7.99204c-0.24024,0 -0.43244,0.19219 -0.43244,0.41642v11.69176c0,0.24024 0.19219,0.43244 0.43244,0.43244h8.1522c0.24024,0 0.43244,-0.19219 0.43244,-0.43244c0,-0.22423 -0.19219,-0.41642 -0.43244,-0.41642z"></path><g><path d="M75,235c0,-19.57101 15.86544,-35.43645 35.43645,-35.43645c19.57101,0 35.43645,15.86544 35.43645,35.43645c0,19.57101 -15.86544,35.43645 -35.43645,35.43645c-19.57101,0 -35.43645,-15.86544 -35.43645,-35.43645z" opacity="0.15"></path><path d="M106.49907,235c0,-19.57101 15.86544,-35.43645 35.43645,-35.43645c19.57101,0 35.43645,15.86544 35.43645,35.43645c0,19.57101 -15.86544,35.43645 -35.43645,35.43645c-19.57101,0 -35.43645,-15.86544 -35.43645,-35.43645z" opacity="0.5"></path><path d="M137.99813,235c0,-19.57101 15.86544,-35.43645 35.43645,-35.43645c19.57101,0 35.43645,15.86544 35.43645,35.43645c0,19.57101 -15.86544,35.43645 -35.43645,35.43645c-19.57101,0 -35.43645,-15.86544 -35.43645,-35.43645z"></path></g></g></g></svg>